<svg width="20" height="20" viewBox="0 0 20 20" fill="none" xmlns="http://www.w3.org/2000/svg"><path fill-rule="evenodd" clip-rule="evenodd" d="M17.5 19h-15A1.5 1.5 0 0 1 1 17.5v-15A1.5 1.5 0 0 1 2.5 1h15A1.5 1.5 0 0 1 19 2.5v15a1.5 1.5 0 0 1-1.5 1.5Z" fill="#2075D6" stroke="#2075D6" stroke-linecap="round" stroke-linejoin="round"/><path fill-rule="evenodd" clip-rule="evenodd" d="M7 6.502v6.424c0 .367.317.608.592.453l5.667-3.213a.549.549 0 0 0 0-.905L7.592 6.047C7.317 5.893 7 6.135 7 6.502Z" fill="#2075D6" stroke="#fff" stroke-linecap="round" stroke-linejoin="round"/></svg>
